<svg width="360" height="324" viewBox="0 0 360 324" fill="none" xmlns="http://www.w3.org/2000/svg">
<path d="M1.44263 150.164C-0.0466324 146.165 -0.0466324 141.764 1.44263 137.765C32.1456 54.2333 102.147 0.400024 179.775 0.400024C257.402 0.400024 327.403 54.2333 358.106 137.765C359.596 141.758 359.596 146.154 358.106 150.146C352.937 164.267 346.448 177.869 338.726 190.773C337.544 192.85 335.958 194.669 334.062 196.125C332.166 197.581 329.999 198.643 327.687 199.25C325.375 199.856 322.965 199.995 320.599 199.657C318.233 199.32 315.958 198.513 313.907 197.284C311.857 196.055 310.073 194.429 308.66 192.501C307.247 190.573 306.234 188.383 305.679 186.058C305.124 183.733 305.039 181.321 305.43 178.962C305.82 176.604 306.677 174.348 307.952 172.326C313.38 163.251 318.09 153.765 322.038 143.956C295.534 78.3327 240.301 36.2889 179.775 36.2889C119.248 36.2889 64.0149 78.3327 37.511 143.956C46.4556 168.768 61.1451 191.112 80.3786 209.16C99.6121 227.209 122.844 240.449 148.174 247.8C152.77 248.961 156.719 251.894 159.16 255.957C161.601 260.02 162.335 264.884 161.203 269.487C160.07 274.089 157.162 278.057 153.114 280.523C149.066 282.989 144.206 283.753 139.597 282.648C107.506 273.515 78.1386 256.667 54.057 233.574C29.9754 210.48 11.9118 181.844 1.44263 150.164ZM251.552 143.956C251.549 132.077 248.598 120.385 242.964 109.927C237.33 99.4701 229.188 90.5746 219.269 84.0386C209.35 77.5026 197.965 73.5304 186.133 72.4781C174.301 71.4259 162.393 73.3266 151.476 78.0097C154.561 80.3236 157.113 83.2734 158.959 86.6593C160.805 90.0452 161.902 93.7883 162.175 97.635C162.448 101.482 161.892 105.342 160.544 108.955C159.195 112.568 157.086 115.849 154.359 118.576C151.632 121.303 148.351 123.412 144.738 124.761C141.125 126.109 137.265 126.665 133.418 126.392C129.571 126.119 125.828 125.022 122.442 123.176C119.056 121.33 116.107 118.778 113.793 115.693C109.6 125.482 107.639 136.082 108.05 146.723C108.462 157.364 111.236 167.781 116.171 177.217C121.107 186.654 128.081 194.874 136.586 201.281C145.092 207.689 154.917 212.123 165.349 214.263C175.781 216.404 186.559 216.196 196.9 213.655C207.242 211.114 216.889 206.304 225.141 199.573C233.394 192.842 240.045 184.36 244.613 174.74C249.181 165.12 251.552 154.605 251.552 143.956ZM278.469 323.4C283.228 323.4 287.792 321.509 291.158 318.144C294.523 314.779 296.413 310.215 296.413 305.456V278.539H323.33C328.089 278.539 332.653 276.648 336.019 273.283C339.384 269.918 341.275 265.354 341.275 260.594C341.275 255.835 339.384 251.271 336.019 247.906C332.653 244.541 328.089 242.65 323.33 242.65H296.413V215.733C296.413 210.974 294.523 206.41 291.158 203.045C287.792 199.679 283.228 197.789 278.469 197.789C273.71 197.789 269.146 199.679 265.78 203.045C262.415 206.41 260.525 210.974 260.525 215.733V242.65H233.608C228.849 242.65 224.284 244.541 220.919 247.906C217.554 251.271 215.663 255.835 215.663 260.594C215.663 265.354 217.554 269.918 220.919 273.283C224.284 276.648 228.849 278.539 233.608 278.539H260.525V305.456C260.525 310.215 262.415 314.779 265.78 318.144C269.146 321.509 273.71 323.4 278.469 323.4Z" fill="url(#paint0_linear_222_176)"/>
<defs>
<linearGradient id="paint0_linear_222_176" x1="0.325684" y1="0.400024" x2="264.68" y2="275.874" gradientUnits="userSpaceOnUse">
<stop stop-color="#48D8D6"/>
<stop offset="1" stop-color="#1C6BFF"/>
</linearGradient>
</defs>
</svg>
